{"glyphs":{":":{"x_min":0,"x_max":375,"ha":375,"o":"m 213 404 q 266 404 303 378 q 340 352 340 316 q 340 280 303 253 q 266 226 213 226 q 162 226 125 253 q 89 279 89 315 q 89 352 125 378 q 161 404 213 404 z m 144 170 q 195 170 233 145 q 271 119 271 86 q 271 46 235 21 q 200 -5 145 -5 q 92 -5 56 21 q 20 46 20 82 q 20 119 56 145 q 91 170 144 170 z"},"$":{"x_min":0,"x_max":698,"ha":698,"o":"m 531 660 q 618 643 667 606 q 715 568 715 521 q 715 482 687 454 q 660 427 620 427 q 581 427 553 455 q 526 483 526 523 q 526 557 546 583 q 567 608 604 616 q 566 635 524 641 l 462 447 q 599 351 625 313 q 651 276 651 234 q 651 145 567 71 q 483 -2 313 -9 l 286 -91 l 259 -91 l 286 -11 q 273 -12 250 -12 q 236 -12 228 -11 l 201 -91 l 176 -91 l 203 -7 q 111 7 57 48 q 4 89 4 140 q 4 177 32 205 q 60 232 98 232 q 137 232 165 204 q 192 176 192 136 q 192 66 113 44 q 165 19 210 13 l 288 255 q 163 338 137 376 q 112 415 112 452 q 112 534 194 597 q 276 660 421 667 l 439 720 l 465 720 l 447 667 l 450 667 q 471 667 504 663 l 523 720 l 550 720 z m 497 642 l 472 643 l 463 643 q 450 643 439 642 l 391 492 l 439 462 z m 414 642 q 366 637 340 620 q 314 603 314 578 q 314 545 370 506 z m 356 208 l 310 242 l 234 10 l 250 10 q 278 10 293 12 z m 321 15 q 381 23 412 47 q 444 72 444 109 q 444 150 379 192 z"},"?":{"x_min":0,"x_max":531,"ha":531,"o":"m 195 589 q 215 600 232 600 q 267 600 290 577 q 314 555 314 522 q 314 490 291 466 q 267 442 235 442 q 200 442 174 469 q 148 496 148 532 q 148 587 205 625 q 261 662 346 662 q 451 662 514 612 q 577 562 577 481 q 577 370 476 293 q 375 217 201 216 l 193 191 l 169 191 l 231 381 l 234 381 q 326 381 386 426 q 446 470 446 537 q 446 583 414 611 q 381 639 327 639 q 250 639 193 591 z m 142 171 q 194 171 231 145 q 269 119 269 83 q 269 47 232 21 q 194 -6 142 -6 q 89 -6 52 20 q 16 45 16 81 q 16 119 52 145 q 88 171 142 171 z"},"<":{"x_min":0,"x_max":667,"ha":667,"o":"m 635 50 l 86 278 l 86 387 l 635 615 l 635 485 l 252 333 l 635 181 z"},"'":{"x_min":0,"x_max":258,"ha":258,"o":"m 205 381 q 153 546 149 571 q 145 596 145 608 q 145 638 166 657 q 188 676 220 676 q 252 676 271 656 q 291 637 291 603 q 291 586 280 552 l 230 381 z"},"=":{"x_min":0,"x_max":667,"ha":667,"o":"m 635 390 l 86 390 l 86 511 l 635 511 z m 635 155 l 86 155 l 86 276 l 635 276 z"},"a":{"x_min":0,"x_max":698,"ha":698,"o":"m 672 406 q 581 126 573 104 q 566 82 566 73 q 566 68 570 64 q 575 60 579 60 q 590 60 611 89 q 632 117 648 155 l 667 146 q 606 -3 477 -3 q 434 -3 400 18 q 365 39 352 74 q 271 -3 177 -3 q 108 -3 63 37 q 19 76 19 137 q 19 245 120 333 q 220 421 344 421 q 403 421 436 394 l 439 406 z m 429 375 q 407 397 384 397 q 367 397 355 384 q 343 371 335 347 l 260 115 q 253 95 253 78 q 253 54 273 54 q 298 54 347 96 q 348 122 363 169 z"},"L":{"x_min":0,"x_max":758,"ha":758,"o":"m 741 248 l 660 0 l -47 0 l -40 23 l 34 23 l 232 632 l 158 632 l 166 655 l 619 655 l 611 632 l 531 632 l 333 23 q 478 26 574 96 q 671 166 719 248 z"},"3":{"x_min":0,"x_max":688,"ha":688,"o":"m 291 612 q 384 608 384 531 q 384 495 359 469 q 334 444 299 444 q 265 444 240 468 q 215 493 215 527 q 215 589 280 628 q 344 668 448 668 q 549 668 613 626 q 677 585 677 521 q 677 489 661 455 q 645 420 611 396 q 578 372 514 362 l 514 360 q 613 319 613 234 q 613 132 519 60 q 425 -12 292 -12 q 180 -12 111 31 q 42 75 42 145 q 42 183 70 211 q 99 239 137 239 q 176 239 204 211 q 232 183 232 144 q 232 103 206 76 q 180 50 139 50 l 125 50 l 125 48 q 172 16 223 16 q 271 16 293 41 q 316 65 324 97 q 333 129 362 212 q 391 296 391 320 q 391 346 327 347 l 333 368 q 345 367 362 367 q 390 367 404 379 q 418 391 434 438 l 466 538 q 484 592 484 606 q 484 647 406 647 q 344 647 291 614 z"},";":{"x_min":0,"x_max":375,"ha":375,"o":"m 225 407 q 275 407 311 382 q 347 357 347 323 q 347 283 311 256 q 275 229 220 229 q 166 229 131 253 q 96 277 96 314 q 96 353 134 380 q 171 407 225 407 z m 224 16 q 185 -3 142 -3 q 88 -3 54 21 q 20 45 20 82 q 20 118 57 144 q 94 170 147 170 q 202 170 237 143 q 272 116 272 75 q 272 13 215 -29 q 158 -70 73 -70 q 62 -70 41 -68 l 41 -44 q 56 -46 70 -46 q 122 -46 164 -29 q 206 -12 226 14 z"},"J":{"x_min":0,"x_max":656,"ha":656,"o":"m 787 655 l 779 632 l 701 632 l 559 197 q 520 77 432 33 q 345 -11 222 -11 q 90 -11 26 39 q -37 89 -37 151 q -37 195 -7 225 q 23 255 68 255 q 111 255 140 226 q 169 196 169 153 q 169 109 141 81 q 114 53 63 49 q 91 23 130 23 q 172 23 198 49 q 223 75 242 133 l 404 632 l 326 632 l 333 655 z"},"V":{"x_min":0,"x_max":823,"ha":823,"o":"m 984 655 l 977 632 q 941 630 912 614 q 883 599 856 574 q 829 550 789 498 l 406 0 l 248 0 l 216 632 l 165 632 l 172 655 l 574 655 l 566 632 l 492 632 l 514 185 l 708 441 q 741 484 758 518 q 775 551 775 576 q 775 625 703 632 l 710 655 z"},"\"":{"x_min":0,"x_max":461,"ha":461,"o":"m 407 381 q 355 551 351 573 q 348 594 348 608 q 348 638 369 657 q 390 676 423 676 q 456 676 475 656 q 494 637 494 603 q 494 582 482 545 l 434 381 z m 205 381 q 153 546 149 571 q 145 596 145 608 q 145 638 166 657 q 188 676 220 676 q 252 676 271 656 q 291 637 291 603 q 291 586 280 552 l 230 381 z"},"7":{"x_min":0,"x_max":688,"ha":688,"o":"m 752 652 q 706 606 654 534 q 602 463 565 391 q 528 319 435 108 q 403 34 363 11 q 323 -12 277 -12 q 225 -12 190 17 q 156 46 156 91 q 156 137 191 183 q 227 230 298 277 l 492 407 q 566 456 594 494 l 592 496 q 517 455 427 455 q 396 455 371 459 q 289 470 269 470 q 191 470 155 393 l 134 393 l 222 662 l 246 662 q 243 651 243 644 q 243 630 258 630 l 263 630 q 265 630 304 640 q 377 660 423 660 q 469 660 514 651 q 604 634 632 634 q 693 634 739 666 z"},"S":{"x_min":0,"x_max":740,"ha":740,"o":"m 779 655 l 707 433 l 684 433 q 688 460 688 485 q 688 553 629 599 q 569 645 479 645 q 431 645 399 627 q 368 610 368 584 q 368 552 415 522 l 550 438 q 613 399 639 370 q 665 341 677 307 q 689 273 689 238 q 689 132 593 59 q 496 -14 354 -14 q 295 -14 239 -1 q 183 12 96 58 l 30 0 l -5 0 l 84 276 l 110 276 q 100 243 100 216 q 100 138 169 77 q 238 16 326 16 q 385 16 427 44 q 468 71 468 109 q 468 138 440 162 q 413 187 286 263 q 186 324 163 364 q 139 404 139 448 q 139 543 235 606 q 331 669 474 669 q 527 669 571 659 q 615 648 676 619 l 749 655 z"},"}":{"x_min":0,"x_max":396,"ha":396,"o":"m 343 224 q 300 216 277 191 q 254 166 254 130 q 254 108 258 91 q 274 18 277 0 q 280 -17 280 -36 q 280 -67 261 -102 q 242 -136 213 -158 q 185 -180 158 -188 q 131 -195 73 -200 l 73 -177 q 118 -168 139 -147 q 160 -126 160 -87 q 160 -67 155 -44 q 135 41 135 67 q 135 132 182 178 q 229 225 303 239 l 303 241 q 135 280 135 416 q 135 437 140 458 q 156 527 158 539 q 160 551 160 566 q 160 614 131 633 q 103 652 73 656 l 73 679 q 160 679 220 631 q 280 583 280 514 q 280 497 277 479 q 275 462 259 390 q 254 370 254 342 q 254 312 278 287 q 302 262 343 253 z"},"Z":{"x_min":0,"x_max":760,"ha":760,"o":"m 793 655 l 374 23 q 503 28 599 95 q 694 162 720 243 l 748 243 l 669 0 l 18 0 l 439 632 q 332 626 247 573 q 163 521 119 433 l 92 433 l 164 655 z"},"x":{"x_min":0,"x_max":656,"ha":656,"o":"m 424 285 q 520 393 542 407 q 565 421 588 421 q 618 421 639 399 q 660 377 660 347 q 660 317 638 295 q 616 273 587 273 q 568 273 550 284 q 532 296 523 313 q 516 326 513 330 q 510 333 505 333 q 497 333 475 309 l 434 263 q 500 98 506 85 q 512 72 523 72 q 556 72 570 172 l 589 167 q 579 77 541 37 q 503 -3 412 -3 q 361 -3 329 10 q 296 22 282 43 q 268 64 248 110 q 174 25 146 11 q 117 -3 86 -3 q 48 -3 23 21 q -2 44 -2 79 q -2 111 20 132 q 42 153 74 153 q 103 153 124 133 q 144 113 144 84 l 143 55 q 143 44 152 44 q 161 44 200 87 q 239 131 239 133 l 189 261 q 170 311 162 322 q 154 334 143 334 q 116 334 92 265 l 73 271 q 94 342 145 381 q 196 421 262 421 q 318 421 357 396 q 396 371 424 285 z"},")":{"x_min":0,"x_max":458,"ha":458,"o":"m 232 666 q 401 511 401 318 q 401 164 290 11 q 178 -142 -54 -220 l -60 -202 q -35 -194 0 -178 l 257 612 q 241 631 218 652 z"},"&":{"x_min":0,"x_max":906,"ha":906,"o":"m 910 399 l 902 376 l 815 376 q 792 289 711 238 q 744 116 755 99 q 765 82 777 82 q 817 82 831 167 l 855 167 q 841 67 768 30 q 695 -8 601 -8 q 546 -8 511 8 q 476 23 453 63 q 423 48 355 23 q 288 -2 260 -8 q 232 -14 191 -14 q 121 -14 75 30 q 29 73 29 140 q 29 339 348 429 q 344 453 344 474 q 344 552 430 611 q 516 670 633 670 q 696 670 731 648 q 765 627 765 588 q 765 513 645 466 l 703 264 q 775 314 786 376 l 711 376 l 719 399 z m 639 490 q 736 529 736 587 q 736 606 722 619 q 708 632 685 632 q 658 632 642 613 q 626 593 626 560 q 626 528 639 490 z m 446 82 l 352 408 q 291 386 284 378 q 277 370 277 358 q 277 339 287 309 l 320 188 q 344 99 350 85 q 356 72 363 66 q 369 61 378 61 q 390 61 403 66 z"},"_":{"x_min":0,"x_max":500,"ha":500,"o":"m 509 -125 l -9 -125 l -9 -75 l 509 -75 z"},"v":{"x_min":0,"x_max":542,"ha":542,"o":"m 520 295 q 483 257 445 257 q 417 257 396 278 q 375 299 375 328 q 375 361 399 384 q 422 407 456 407 q 495 407 521 377 q 547 348 547 302 q 547 229 494 158 q 442 86 356 42 q 270 -3 182 -3 q 121 -3 79 24 q 37 52 37 90 q 37 113 47 143 l 79 242 q 97 296 98 299 q 98 301 98 306 q 98 315 89 315 q 70 315 35 249 l 17 262 q 99 421 235 421 q 285 421 315 402 q 344 383 344 351 q 344 332 335 305 l 286 155 q 265 88 262 79 q 260 71 260 66 q 260 46 281 46 q 315 46 378 85 q 441 125 481 183 q 520 242 520 286 z"},"O":{"x_min":0,"x_max":823,"ha":823,"o":"m 511 670 q 650 670 743 591 q 837 512 837 397 q 837 289 777 193 q 717 98 614 42 q 511 -14 394 -14 q 246 -14 157 60 q 68 134 68 255 q 68 361 129 458 q 191 555 294 612 q 398 670 511 670 z m 586 541 q 598 577 598 600 q 598 619 585 630 q 573 642 553 642 q 525 642 504 620 q 483 597 460 526 l 329 121 q 312 66 312 48 q 312 30 325 19 q 338 8 359 8 q 392 8 411 36 q 431 65 452 130 z"},"(":{"x_min":0,"x_max":490,"ha":490,"o":"m 565 648 q 541 641 505 624 l 248 -165 q 270 -190 288 -206 l 274 -220 q 104 -67 104 129 q 104 278 213 432 q 322 586 559 666 z"},"C":{"x_min":0,"x_max":708,"ha":708,"o":"m 805 662 l 729 385 l 702 385 q 716 438 716 476 q 716 546 673 595 q 629 645 569 645 q 526 645 506 626 q 487 606 467 545 l 332 130 q 318 86 318 65 q 318 43 342 28 q 366 12 402 12 q 458 12 522 41 q 587 69 636 122 l 654 104 q 545 -14 385 -14 q 251 -14 159 65 q 68 144 68 258 q 68 363 130 465 q 193 567 302 619 q 411 670 526 670 q 631 670 702 626 l 782 662 z"},"W":{"x_min":0,"x_max":1229,"ha":1229,"o":"m 1384 655 l 1377 632 q 1317 626 1277 593 q 1237 561 1195 506 l 806 0 l 648 0 l 632 299 l 402 0 l 246 0 l 215 632 l 163 632 l 170 655 l 551 655 l 543 632 l 490 632 l 513 187 l 632 341 l 616 632 l 565 632 l 572 655 l 975 655 l 967 632 l 892 632 l 913 185 l 915 185 l 1116 453 q 1145 491 1160 520 q 1175 549 1175 572 q 1175 600 1157 613 q 1140 627 1103 632 l 1111 655 z"},"A":{"x_min":0,"x_max":833,"ha":833,"o":"m 780 23 l 773 0 l 344 0 l 351 23 l 439 23 l 420 185 l 167 185 q 132 134 132 100 q 132 67 158 45 q 184 23 222 23 l 243 23 l 235 0 l -49 0 l -42 23 l -40 23 q 6 23 42 60 q 79 98 118 158 l 439 655 l 652 655 l 724 23 z m 417 209 l 383 516 l 381 516 l 183 209 z"},"f":{"x_min":0,"x_max":385,"ha":385,"o":"m 133 406 l 160 489 q 173 528 195 560 q 217 593 246 615 q 274 638 307 649 q 340 660 375 660 q 429 660 463 633 q 497 606 497 565 q 497 529 472 502 q 446 476 410 476 q 373 476 346 501 q 320 527 320 562 q 320 615 371 637 l 369 639 q 328 635 304 604 q 280 572 280 525 q 280 472 314 439 q 349 406 405 406 l 443 406 l 437 386 l 362 386 l 237 0 l 1 0 l 127 386 l 68 386 l 75 406 z"},"Q":{"x_min":0,"x_max":823,"ha":823,"o":"m 300 -5 q 186 20 127 86 q 68 153 68 254 q 68 360 129 458 q 190 555 294 613 q 397 670 511 670 q 650 670 743 592 q 837 514 837 400 q 837 253 729 131 q 621 9 453 -11 q 443 -39 443 -58 q 443 -97 472 -123 q 500 -148 544 -148 q 562 -148 586 -142 l 589 -166 q 532 -182 485 -182 q 404 -182 350 -141 q 295 -101 295 -42 q 295 -21 300 -5 z m 586 541 q 599 580 599 600 q 599 618 585 629 q 571 641 551 641 q 529 641 508 624 q 486 607 460 526 l 329 121 q 313 73 313 49 q 313 31 325 19 q 337 8 357 8 q 389 8 409 34 q 429 60 452 130 z"},"w":{"x_min":0,"x_max":861,"ha":861,"o":"m 839 297 q 808 258 766 258 q 736 258 716 279 q 695 301 695 331 q 695 365 718 387 q 740 409 774 409 q 813 409 840 378 q 866 347 866 300 q 866 229 812 158 q 759 86 672 42 q 585 -3 498 -3 q 433 -3 394 26 q 355 56 355 104 l 355 113 q 241 -3 138 -3 q 92 -3 62 20 q 31 43 31 77 q 31 97 40 122 q 97 295 97 304 q 97 315 89 315 q 71 315 34 247 l 15 260 q 61 342 115 382 q 169 421 240 421 q 287 421 316 402 q 345 383 345 353 q 345 328 309 222 q 273 117 273 105 q 273 91 284 91 q 291 91 299 95 q 307 100 318 109 q 329 118 342 131 q 354 145 370 163 q 372 166 410 281 l 450 406 l 687 406 l 615 185 q 583 84 581 77 q 579 69 579 65 q 579 57 585 52 q 591 46 600 46 q 633 46 696 85 q 759 124 799 183 q 839 242 839 286 z"},"-":{"x_min":0,"x_max":375,"ha":375,"o":"m 369 323 l 308 135 l 13 135 l 74 323 z"},"E":{"x_min":0,"x_max":796,"ha":796,"o":"m 866 655 l 793 432 l 769 432 q 774 460 774 474 q 774 539 711 585 q 647 632 559 632 l 533 632 l 446 362 l 454 362 q 523 362 574 407 q 625 452 646 498 l 670 498 l 564 172 l 540 172 q 551 206 551 232 q 551 278 520 306 q 489 333 437 335 l 335 23 l 365 23 q 443 23 552 81 q 662 139 716 216 l 720 222 q 726 230 729 236 l 750 236 l 673 0 l -52 0 l -45 23 l 34 23 l 232 632 l 153 632 l 161 655 z"},"s":{"x_min":0,"x_max":474,"ha":474,"o":"m 95 51 q 138 22 193 22 q 221 22 236 33 q 252 45 252 65 q 252 81 238 96 q 224 110 155 166 q 106 205 92 225 q 78 245 78 273 q 78 336 141 378 q 203 421 296 421 q 372 421 420 393 q 469 365 469 322 q 469 295 453 278 q 436 261 410 261 q 382 261 364 279 q 345 297 345 323 q 345 342 356 358 q 368 374 386 381 q 351 395 316 395 q 280 395 260 384 q 240 374 240 355 q 240 337 267 318 q 369 247 398 214 q 427 181 427 141 q 427 81 366 39 q 305 -3 217 -3 q 134 -3 70 33 q 6 69 6 114 q 6 142 27 160 q 48 179 78 179 q 107 179 128 159 q 149 140 149 112 q 149 63 95 51 z"},">":{"x_min":0,"x_max":667,"ha":667,"o":"m 635 279 l 86 50 l 86 181 l 469 333 l 86 485 l 86 615 l 635 388 z"},"l":{"x_min":0,"x_max":385,"ha":385,"o":"m 446 673 l 259 97 q 254 82 254 72 q 254 60 265 60 q 275 60 298 89 q 321 117 336 154 l 356 146 q 322 70 275 33 q 227 -3 158 -3 q 99 -3 62 22 q 25 47 25 86 q 25 99 40 145 l 199 635 l 135 635 l 142 655 l 168 655 q 329 655 446 673 z"},"8":{"x_min":0,"x_max":688,"ha":688,"o":"m 260 402 q 192 444 192 508 q 192 577 266 620 q 340 663 459 663 q 573 663 643 623 q 713 583 713 521 q 713 469 664 428 q 615 388 530 374 q 581 344 612 299 q 642 253 642 214 q 642 121 551 57 q 459 -7 323 -7 q 200 -7 121 50 q 43 107 43 195 q 43 266 99 320 q 155 375 260 402 z m 421 408 q 443 408 452 423 q 461 437 487 515 q 512 594 512 608 q 512 625 502 634 q 491 644 474 644 q 454 644 441 631 q 428 619 415 579 l 389 500 q 376 461 376 445 q 376 408 421 408 z m 291 16 q 306 16 321 26 q 335 36 340 52 l 423 305 q 434 338 434 356 q 434 390 397 390 q 380 390 366 381 q 353 372 345 357 q 338 343 312 263 l 267 125 q 248 65 248 55 q 248 38 260 27 q 272 16 291 16 z"},"\\":{"x_min":0,"x_max":635,"ha":635,"o":"m 610 -137 l 458 -137 l 25 696 l 176 696 z"},"e":{"x_min":0,"x_max":583,"ha":583,"o":"m 507 103 q 467 54 407 25 q 348 -3 282 -3 q 159 -3 89 45 q 19 92 19 175 q 19 281 112 352 q 205 422 348 422 q 444 422 504 384 q 564 345 564 285 q 564 223 501 179 q 438 135 348 135 q 308 135 242 145 q 218 70 218 63 q 218 47 245 37 q 273 27 313 27 q 356 27 408 52 q 460 77 493 117 z m 249 166 q 261 165 277 165 q 297 165 310 169 q 323 174 333 188 q 344 202 357 241 l 384 321 q 398 362 398 376 q 398 386 388 394 q 377 401 363 401 q 342 401 329 387 q 316 373 307 345 z"},"b":{"x_min":0,"x_max":658,"ha":658,"o":"m 344 358 q 428 421 507 421 q 566 421 603 381 q 639 341 639 277 q 639 161 543 79 q 446 -3 273 -3 q 161 -3 100 42 q 39 86 39 135 q 39 159 49 190 l 194 635 l 130 635 l 137 655 l 167 655 q 319 655 445 673 l 342 360 z m 331 324 l 275 152 q 250 75 248 66 q 246 56 246 48 q 246 36 257 27 q 267 18 281 18 q 294 18 307 25 q 320 31 339 95 q 359 160 390 250 q 421 340 421 355 q 421 368 404 368 q 385 368 331 324 z"},"%":{"x_min":0,"x_max":854,"ha":854,"o":"m 316 663 q 396 663 434 620 q 471 576 471 523 q 471 414 398 334 q 324 254 224 254 q 162 254 122 292 q 83 330 83 389 q 83 498 154 580 q 225 663 316 663 z m 224 274 q 238 274 245 284 q 252 293 261 320 l 349 593 q 356 610 356 621 q 356 629 350 635 q 343 641 334 641 q 314 641 306 611 q 297 580 251 443 q 204 306 204 293 q 204 274 224 274 z m 740 660 l 234 -7 l 189 -7 l 696 660 z m 698 401 q 766 401 808 363 q 850 326 850 265 q 850 153 779 73 q 707 -8 608 -8 q 543 -8 503 29 q 463 65 463 125 q 463 217 525 309 q 587 401 698 401 z m 606 13 q 618 13 624 21 q 630 29 650 91 l 703 253 q 735 353 735 362 q 735 381 713 381 q 708 381 702 378 q 696 375 693 371 q 690 367 677 325 l 589 53 q 585 43 585 33 q 585 13 606 13 z"},"m":{"x_min":0,"x_max":1021,"ha":1021,"o":"m 1000 161 q 941 -4 800 -4 q 739 -4 705 18 q 671 40 671 79 q 671 105 686 152 l 731 294 q 735 306 735 311 q 735 315 731 319 q 728 323 723 323 q 718 323 711 320 q 705 316 697 311 q 689 305 681 298 q 676 293 666 282 q 659 276 647 263 q 636 250 617 191 l 554 0 l 317 0 l 380 192 q 407 274 410 286 q 413 297 413 304 q 413 310 408 314 q 403 318 397 318 q 389 318 379 312 q 369 307 356 295 q 342 283 328 267 q 314 251 314 251 l 313 249 l 233 0 l -2 0 l 124 386 l 58 386 l 64 406 q 233 406 371 426 l 331 304 l 333 302 q 441 421 545 421 q 591 421 622 396 q 653 370 653 333 q 653 317 645 293 l 646 292 q 707 358 757 390 q 808 421 864 421 q 911 421 941 397 q 970 374 970 337 q 970 313 962 290 l 904 110 q 899 95 899 85 q 899 73 910 73 q 925 73 944 100 q 963 126 978 169 z"},"#":{"x_min":0,"x_max":668,"ha":668,"o":"m 672 160 l 526 160 l 487 -21 l 381 -21 l 421 160 l 259 160 l 221 -21 l 115 -21 l 154 160 l 76 160 l 76 265 l 176 265 l 203 400 l 76 400 l 76 505 l 223 505 l 264 688 l 369 688 l 329 505 l 489 505 l 528 688 l 634 688 l 594 505 l 672 505 l 672 400 l 574 400 l 546 265 l 672 265 z m 469 400 l 308 400 l 281 266 l 441 266 z"},",":{"x_min":0,"x_max":344,"ha":344,"o":"m 224 16 q 185 -3 142 -3 q 88 -3 54 21 q 20 45 20 82 q 20 118 57 144 q 94 170 147 170 q 202 170 237 143 q 272 116 272 75 q 272 13 215 -29 q 158 -70 73 -70 q 62 -70 41 -68 l 41 -44 q 56 -46 70 -46 q 122 -46 164 -29 q 206 -12 226 14 z"},"n":{"x_min":0,"x_max":698,"ha":698,"o":"m 679 161 q 625 -3 474 -3 q 418 -3 384 21 q 350 44 350 83 q 350 104 357 128 l 407 282 q 414 303 414 313 q 414 325 403 325 q 397 325 388 321 q 380 316 369 307 q 359 298 346 285 q 333 272 316 254 q 315 252 289 171 l 233 0 l -2 0 l 123 386 l 58 386 l 65 406 l 77 406 q 132 406 225 411 q 318 417 371 426 l 326 298 l 328 296 q 438 421 546 421 q 589 421 619 398 q 649 375 649 341 q 649 314 631 260 l 585 117 q 579 99 579 87 q 579 83 583 79 q 586 75 591 75 q 604 75 624 101 q 643 127 657 169 z"},"h":{"x_min":0,"x_max":698,"ha":698,"o":"m 679 161 q 625 -3 474 -3 q 418 -3 384 21 q 350 44 350 83 q 350 104 357 128 l 407 282 q 414 303 414 313 q 414 325 403 325 q 397 325 388 321 q 380 316 369 307 q 359 298 346 285 q 333 272 316 254 q 315 252 289 171 l 233 0 l -3 0 l 206 635 l 142 635 l 148 655 l 155 655 q 207 655 305 659 q 403 664 452 673 l 328 296 q 438 421 546 421 q 589 421 619 398 q 649 375 649 341 q 649 314 631 260 l 585 117 q 579 99 579 87 q 579 83 583 79 q 586 75 591 75 q 604 75 624 101 q 643 127 657 169 z"},"z":{"x_min":0,"x_max":542,"ha":542,"o":"m 549 406 q 501 348 478 325 q 455 302 423 277 q 391 252 355 231 q 320 210 276 192 q 231 174 206 163 l 206 161 l 213 161 q 287 161 367 123 q 419 98 425 98 q 435 98 435 109 q 435 117 425 123 q 395 141 384 155 q 373 168 373 187 q 373 210 390 226 q 407 241 433 241 q 464 241 485 218 q 506 195 506 160 q 506 98 457 42 q 408 -13 319 -13 q 259 -13 184 11 q 103 38 66 38 q 42 38 23 26 q 4 15 -18 -10 l -36 4 q -17 35 13 66 q 43 97 80 124 q 118 151 151 169 q 185 186 289 228 q 323 242 348 262 l 346 264 q 321 259 300 259 q 218 259 139 310 q 133 315 126 315 q 117 315 117 306 q 117 298 132 282 q 153 259 153 235 q 153 214 139 200 q 125 186 104 186 q 76 186 58 208 q 39 230 39 264 q 39 325 93 370 q 146 416 219 416 q 260 416 323 399 q 377 383 392 380 q 407 377 424 377 q 474 377 532 421 z"},"B":{"x_min":0,"x_max":835,"ha":835,"o":"m 169 655 l 575 655 q 722 655 778 635 q 834 615 860 583 q 885 550 885 510 q 885 442 822 398 q 758 354 672 346 l 672 344 q 741 327 777 287 q 813 247 813 197 q 813 146 780 99 q 747 52 686 26 q 625 0 478 0 l -48 0 l -41 23 l 33 23 l 236 632 l 162 632 z m 450 367 l 493 367 q 523 367 533 372 q 543 376 552 387 q 560 397 575 446 l 605 540 q 620 584 620 599 q 620 632 564 632 l 537 632 z m 339 23 l 379 23 q 407 23 421 29 q 434 36 444 53 q 454 70 464 104 l 498 208 q 521 278 523 290 q 526 301 526 308 q 526 326 514 333 q 501 341 473 341 l 442 341 z"},"K":{"x_min":0,"x_max":833,"ha":833,"o":"m 967 655 l 959 632 q 879 630 820 595 q 760 560 639 461 l 739 23 l 792 23 l 785 0 l 410 0 l 417 23 l 466 23 l 411 269 l 409 269 l 331 23 l 382 23 l 375 0 l -53 0 l -45 23 l 34 23 l 232 632 l 153 632 l 160 655 l 592 655 l 585 632 l 529 632 l 430 329 l 432 327 q 566 427 640 495 q 714 562 714 594 q 714 630 641 632 l 649 655 z"},"R":{"x_min":0,"x_max":865,"ha":865,"o":"m 163 655 l 659 655 q 893 655 893 513 q 893 457 848 412 q 803 367 701 347 l 701 345 q 750 336 777 310 q 804 285 804 255 q 804 223 790 178 l 765 103 q 761 91 761 87 q 761 77 771 77 q 794 77 821 155 l 849 155 q 794 -14 638 -14 q 562 -14 517 16 q 472 46 472 96 q 472 115 488 167 q 514 248 517 260 q 520 272 520 286 q 520 336 463 336 l 440 336 l 338 23 l 388 23 l 381 0 l -50 0 l -42 23 l 34 23 l 232 632 l 156 632 z m 448 362 l 473 362 q 507 362 527 372 q 546 382 558 403 q 570 424 585 470 l 611 548 q 622 581 622 596 q 622 632 570 632 l 536 632 z"},"T":{"x_min":0,"x_max":740,"ha":740,"o":"m 876 655 l 809 450 l 785 450 l 785 455 q 785 521 750 570 q 714 618 652 632 l 456 23 l 568 23 l 560 0 l 49 0 l 56 23 l 158 23 l 353 632 q 290 628 223 577 q 156 526 112 446 l 86 446 l 151 655 z"},"P":{"x_min":0,"x_max":833,"ha":833,"o":"m 163 655 l 633 655 q 782 655 837 599 q 893 543 893 468 q 893 355 789 289 q 684 222 504 222 q 449 222 401 229 l 334 23 l 441 23 l 433 0 l -50 0 l -43 23 l 34 23 l 232 632 l 155 632 z m 409 253 q 435 246 450 246 q 489 246 511 278 q 532 310 549 362 q 565 414 594 494 q 622 574 622 593 q 622 632 560 632 l 532 632 z"},"|":{"x_min":0,"x_max":611,"ha":611,"o":"m 367 -135 l 245 -135 l 245 696 l 367 696 z"},"t":{"x_min":0,"x_max":396,"ha":396,"o":"m 443 406 l 437 386 l 349 386 l 250 82 q 246 67 246 57 q 246 43 259 43 q 276 43 304 73 q 331 104 352 166 l 373 160 q 324 -3 177 -3 q 106 -3 67 23 q 28 50 28 97 q 28 125 40 163 l 113 386 l 54 386 l 61 406 q 214 408 394 583 l 413 583 l 356 406 z"},"M":{"x_min":0,"x_max":1073,"ha":1073,"o":"m 1198 655 l 1191 632 l 1114 632 l 916 23 l 993 23 l 985 0 l 528 0 l 536 23 l 612 23 l 772 514 l 770 516 l 384 0 l 287 0 l 229 555 l 227 555 l 112 199 q 93 141 93 112 q 93 30 204 23 l 197 0 l -83 0 l -75 23 q -36 23 -7 43 q 22 62 41 95 q 60 127 81 191 l 225 632 l 144 632 l 152 655 l 494 655 l 540 251 l 842 655 z"},"g":{"x_min":0,"x_max":667,"ha":667,"o":"m 664 406 l 540 22 q 504 -86 413 -148 q 322 -210 193 -210 q 97 -210 36 -173 q -26 -136 -26 -80 q -26 -46 -2 -22 q 22 1 58 1 q 92 1 116 -23 q 140 -46 140 -80 q 140 -112 119 -133 q 98 -154 61 -158 l 61 -160 q 102 -185 145 -185 q 190 -185 218 -163 q 246 -141 259 -110 q 272 -79 308 33 q 242 -3 168 -3 q 102 -3 60 40 q 19 83 19 152 q 19 265 96 343 q 174 421 285 421 q 365 421 419 375 l 429 406 z m 413 356 q 388 381 361 381 q 350 381 342 377 q 334 374 329 364 q 323 354 311 319 l 248 124 q 233 78 233 64 q 233 53 240 45 q 247 38 257 38 q 282 38 320 68 z"},"j":{"x_min":0,"x_max":385,"ha":385,"o":"m 325 664 q 372 664 403 643 q 434 621 434 589 q 434 555 390 528 q 347 500 291 500 q 244 500 214 520 q 184 541 184 571 q 184 608 227 636 q 269 664 325 664 z m 378 423 l 221 -60 q 171 -213 18 -213 q -24 -213 -60 -185 q -95 -157 -95 -115 q -95 -77 -70 -51 q -44 -25 -8 -25 q 30 -25 56 -50 q 83 -74 83 -110 q 83 -165 36 -191 l 38 -193 q 73 -187 95 -156 q 117 -125 117 -84 q 117 -2 17 33 l 131 386 l 66 386 l 73 406 l 109 406 q 263 406 378 423 z"},"i":{"x_min":0,"x_max":385,"ha":385,"o":"m 312 664 q 360 664 390 644 q 420 623 420 591 q 420 556 376 528 q 333 500 279 500 q 231 500 201 520 q 170 541 170 571 q 170 607 213 635 q 256 664 312 664 z m 364 423 l 292 200 q 255 87 254 83 q 253 79 253 72 q 253 60 264 60 q 275 60 297 88 q 319 117 334 154 l 354 146 q 293 -3 160 -3 q 103 -3 64 21 q 26 45 26 80 q 26 103 40 143 l 119 386 l 53 386 l 59 406 l 87 406 q 229 406 364 423 z"},"y":{"x_min":0,"x_max":687,"ha":687,"o":"m 689 406 l 559 7 q 517 -122 419 -164 q 322 -207 203 -207 q 107 -207 45 -173 q -17 -140 -17 -89 q -17 -58 7 -36 q 31 -13 63 -13 q 97 -13 119 -36 q 142 -59 142 -94 q 142 -143 94 -168 q 124 -184 160 -184 q 197 -184 225 -169 q 253 -155 271 -126 q 289 -98 306 -47 l 345 69 l 343 71 q 237 -3 158 -3 q 109 -3 77 22 q 45 47 45 85 q 45 113 60 159 l 101 285 q 105 295 105 303 q 105 316 96 316 q 78 316 43 250 l 22 260 q 59 335 115 375 q 172 416 237 416 q 285 416 313 396 q 342 377 342 347 q 342 333 331 298 l 267 88 q 263 76 263 64 q 263 54 272 54 q 292 54 355 101 l 454 406 z"},"@":{"x_min":0,"x_max":927,"ha":927,"o":"m 928 78 q 884 -45 770 -131 q 656 -217 497 -217 q 306 -217 184 -95 q 62 26 62 216 q 62 400 194 538 q 326 676 528 676 q 690 676 790 585 q 889 494 889 346 q 889 200 805 100 q 722 0 601 0 q 544 0 518 21 q 491 42 491 89 q 491 113 500 149 l 498 151 q 452 68 413 34 q 374 0 332 0 q 289 0 263 33 q 238 65 238 122 q 238 196 280 279 q 322 362 385 415 q 449 468 505 468 q 566 468 572 392 l 574 392 l 590 451 l 734 460 q 672 248 650 176 q 628 105 628 75 q 628 45 655 45 q 713 45 782 132 q 850 220 850 341 q 850 473 766 554 q 681 635 544 635 q 370 635 251 507 q 133 378 133 189 q 133 19 246 -80 q 358 -179 507 -179 q 631 -179 736 -110 q 841 -41 887 78 z m 419 97 q 454 97 504 206 q 554 314 554 378 q 554 426 522 426 q 478 426 435 303 q 391 180 391 132 q 391 117 399 107 q 407 97 419 97 z"},".":{"x_min":0,"x_max":344,"ha":344,"o":"m 148 168 q 199 168 234 143 q 270 118 270 83 q 270 45 232 18 q 193 -9 139 -9 q 87 -9 53 16 q 19 41 19 77 q 19 115 56 141 q 94 168 148 168 z"},"p":{"x_min":0,"x_max":665,"ha":665,"o":"m 353 371 q 410 406 441 413 q 472 421 503 421 q 566 421 606 381 q 646 341 646 277 q 646 169 564 83 q 481 -3 380 -3 q 360 -3 328 5 q 295 13 251 56 l 172 -186 l 233 -186 l 227 -206 l -128 -206 l -121 -186 l -63 -186 l 124 386 l 59 386 l 66 406 l 97 406 q 263 406 371 426 z m 260 83 q 291 48 308 48 q 316 48 323 52 q 329 56 334 66 q 340 75 351 108 l 386 217 q 411 293 417 311 q 422 329 422 341 q 422 366 401 366 q 378 366 344 343 z"},"X":{"x_min":0,"x_max":844,"ha":844,"o":"m 967 655 l 959 632 q 922 628 897 617 q 872 606 839 580 q 806 555 746 487 l 615 341 l 724 23 l 761 23 l 754 0 l 325 0 l 333 23 l 422 23 l 322 312 q 202 179 188 164 q 174 148 161 126 q 148 104 148 83 q 148 61 163 45 q 178 30 216 23 l 209 0 l -69 0 l -62 23 q 0 30 51 69 q 103 109 312 341 l 211 632 l 153 632 l 160 655 l 603 655 l 595 632 l 514 632 l 603 373 q 720 499 735 525 q 750 552 750 573 q 750 622 679 632 l 686 655 z"},"*":{"x_min":0,"x_max":375,"ha":375,"o":"m 265 545 q 334 609 345 615 q 355 620 364 620 q 376 620 385 610 q 393 600 393 585 q 393 566 385 556 q 377 547 360 545 l 269 535 l 269 533 q 345 520 354 512 q 363 504 363 491 q 363 473 350 458 q 338 444 323 444 q 312 444 303 451 q 293 458 287 471 l 260 526 l 258 524 l 260 435 q 260 400 222 400 q 186 400 186 426 q 186 436 192 446 l 247 525 l 245 527 q 174 461 164 457 q 154 452 146 452 q 135 452 127 463 q 119 474 119 490 q 119 511 130 520 q 142 530 174 532 l 243 536 l 243 538 q 170 556 161 559 q 152 562 146 570 q 139 579 139 593 q 139 608 151 620 q 163 633 177 633 q 188 633 200 623 q 213 613 249 545 l 251 547 l 243 630 q 243 668 286 668 q 320 668 320 641 q 320 628 309 612 l 263 547 z"},"Y":{"x_min":0,"x_max":833,"ha":833,"o":"m 942 655 l 934 632 q 909 628 893 622 q 868 612 846 596 q 820 579 790 549 q 771 530 741 496 l 620 356 q 589 321 557 222 l 492 23 l 583 23 l 576 0 l 95 0 l 102 23 l 195 23 l 287 305 l 159 632 l 111 632 l 119 655 l 534 655 l 527 632 l 469 632 l 581 353 l 704 493 q 725 518 736 537 q 746 557 746 576 q 746 621 684 632 l 692 655 z"},"c":{"x_min":0,"x_max":535,"ha":535,"o":"m 482 118 q 395 -3 263 -3 q 162 -3 90 52 q 19 108 19 185 q 19 286 105 354 q 192 421 321 421 q 412 421 469 385 q 526 350 526 294 q 526 257 500 231 q 474 205 438 205 q 401 205 375 232 q 348 258 348 295 q 348 329 371 354 q 394 379 435 381 l 435 383 q 411 396 387 396 q 364 396 348 386 q 332 377 323 363 q 315 349 289 269 l 245 133 q 226 77 226 64 q 226 28 289 28 q 380 28 467 131 z"},"!":{"x_min":0,"x_max":375,"ha":375,"o":"m 180 189 l 180 531 q 180 585 190 612 q 200 638 230 657 q 260 676 304 676 q 345 676 369 656 q 394 637 394 606 q 394 572 371 525 l 206 189 z m 167 168 q 218 168 254 143 q 289 118 289 83 q 289 45 251 18 q 213 -9 159 -9 q 107 -9 73 16 q 38 41 38 77 q 38 115 75 141 q 113 168 167 168 z"},"/":{"x_min":0,"x_max":635,"ha":635,"o":"m 626 696 l 193 -137 l 41 -137 l 474 696 z"},"[":{"x_min":0,"x_max":417,"ha":417,"o":"m 535 668 l 528 648 l 449 648 l 176 -190 l 256 -190 l 249 -211 l -56 -211 l 233 668 z"},"6":{"x_min":0,"x_max":688,"ha":688,"o":"m 359 398 q 417 409 467 409 q 550 409 599 371 q 647 332 647 267 q 647 160 542 77 q 438 -6 300 -6 q 192 -6 127 51 q 62 107 62 201 q 62 322 129 438 q 196 553 298 608 q 401 663 507 663 q 594 663 651 625 q 708 586 708 530 q 708 491 680 464 q 652 436 613 436 q 574 436 546 464 q 518 492 518 531 q 518 564 538 589 q 558 614 594 623 q 565 642 517 642 q 477 642 449 617 q 422 592 406 542 z m 351 371 l 255 78 q 249 58 249 46 q 249 33 259 25 q 269 16 284 16 q 302 16 313 28 q 324 40 344 101 l 393 252 q 423 344 423 354 q 423 381 397 381 q 379 381 351 371 z"},"r":{"x_min":0,"x_max":539,"ha":539,"o":"m 335 311 q 408 421 491 421 q 524 421 547 397 q 569 373 569 336 q 569 294 543 267 q 517 239 478 239 q 416 239 399 305 q 393 327 383 327 q 366 327 340 288 q 314 248 291 176 l 233 0 l -2 0 l 123 386 l 58 386 l 65 406 l 95 406 q 235 406 372 426 l 334 313 z"},"2":{"x_min":0,"x_max":688,"ha":688,"o":"m 155 563 q 178 586 212 586 q 247 586 270 562 q 293 539 293 502 q 293 457 262 427 q 232 396 187 396 q 148 396 122 421 q 95 447 95 484 q 95 563 171 615 q 246 667 368 667 q 508 667 594 611 q 679 554 679 464 q 679 406 637 352 q 596 298 529 272 q 461 247 351 232 q 283 223 268 219 q 253 216 234 208 q 221 202 214 200 l 216 198 q 246 201 263 201 q 321 201 429 174 q 500 157 522 157 q 549 157 567 169 q 585 182 606 209 l 622 198 q 581 107 527 48 q 473 -12 389 -12 q 358 -12 323 -6 q 289 0 213 20 q 142 39 96 39 q 4 39 -45 -13 l -62 0 q -28 59 42 114 q 111 168 196 211 q 276 251 291 261 q 307 271 339 303 q 371 336 391 380 q 411 425 421 469 q 431 513 431 550 q 431 596 403 621 q 375 646 326 646 q 271 646 222 624 q 174 603 153 565 z"},"{":{"x_min":0,"x_max":396,"ha":396,"o":"m 343 -200 q 255 -200 195 -152 q 135 -104 135 -35 q 135 -12 156 88 q 162 113 162 137 q 162 167 137 192 q 113 217 72 226 l 72 254 q 115 263 138 288 q 162 312 162 349 q 162 364 144 451 q 136 488 136 515 q 136 546 155 581 q 174 615 202 637 q 230 659 257 667 q 284 674 343 679 l 343 655 q 298 647 277 626 q 256 605 256 566 q 256 543 260 526 l 273 472 q 281 440 281 412 q 281 347 234 301 q 187 255 113 240 l 113 238 q 281 199 281 62 q 281 42 275 18 l 261 -46 q 256 -68 256 -87 q 256 -128 278 -149 q 300 -170 343 -177 z"},"9":{"x_min":0,"x_max":688,"ha":688,"o":"m 385 258 q 327 247 277 247 q 194 247 146 285 q 97 324 97 389 q 97 497 201 579 q 306 662 444 662 q 552 662 617 605 q 682 548 682 455 q 682 334 615 218 q 548 103 446 48 q 343 -7 237 -7 q 150 -7 93 31 q 36 70 36 126 q 36 165 64 193 q 92 220 131 220 q 170 220 198 192 q 226 165 226 125 q 226 91 206 67 q 187 42 150 33 q 179 14 227 14 q 267 14 295 39 q 322 64 338 114 z m 393 285 l 489 579 q 495 598 495 610 q 495 623 485 632 q 475 640 460 640 q 442 640 431 628 q 420 616 400 556 l 351 404 q 321 312 321 302 q 321 275 347 275 q 364 275 393 285 z"}," ":{"x_min":0,"x_max":344,"ha":344,"o":""},"I":{"x_min":0,"x_max":490,"ha":490,"o":"m 614 655 l 607 632 l 529 632 l 331 23 l 409 23 l 401 0 l -53 0 l -45 23 l 34 23 l 232 632 l 153 632 l 160 655 z"},"H":{"x_min":0,"x_max":906,"ha":906,"o":"m 1032 655 l 1024 632 l 946 632 l 748 23 l 826 23 l 819 0 l 394 0 l 401 23 l 448 23 l 542 313 l 425 313 l 331 23 l 374 23 l 367 0 l -50 0 l -42 23 l 34 23 l 232 632 l 156 632 l 163 655 l 580 655 l 572 632 l 529 632 l 433 336 l 550 336 l 646 632 l 599 632 l 606 655 z"},"4":{"x_min":0,"x_max":688,"ha":688,"o":"m 694 655 l 545 197 l 606 197 l 599 177 l 539 177 l 488 20 l 570 20 l 563 0 l 143 0 l 149 20 l 251 20 l 302 177 l 21 177 l 480 655 z m 428 560 l 426 562 l 80 197 l 309 197 z"},"~":{"x_min":0,"x_max":667,"ha":667,"o":"m 607 428 q 605 336 564 287 q 522 239 460 239 q 425 239 391 249 q 357 259 273 295 q 209 323 174 323 q 108 323 97 239 l 60 239 q 63 337 104 383 q 145 428 206 428 q 270 428 394 373 q 460 343 488 343 q 560 343 570 428 z"},"D":{"x_min":0,"x_max":865,"ha":865,"o":"m 160 655 l 551 655 q 644 655 694 644 q 745 634 788 604 q 831 574 854 525 q 878 476 878 412 q 878 325 838 239 q 798 152 736 97 q 673 42 609 21 q 544 0 447 0 l -53 0 l -46 23 l 34 23 l 232 632 l 152 632 z m 334 23 l 373 23 q 419 23 445 46 q 470 69 489 129 l 619 528 q 630 564 630 584 q 630 632 560 632 l 532 632 z"},"^":{"x_min":0,"x_max":506,"ha":506,"o":"m 525 326 l 440 326 l 306 560 l 172 326 l 91 326 l 292 676 l 324 676 z"},"0":{"x_min":0,"x_max":688,"ha":688,"o":"m 456 668 q 569 668 635 604 q 702 541 702 433 q 702 316 646 213 q 590 109 495 48 q 400 -12 294 -12 q 180 -12 114 52 q 47 117 47 228 q 47 334 103 440 q 160 546 252 607 q 344 668 456 668 z m 511 590 q 516 605 516 619 q 516 632 507 640 q 497 648 482 648 q 447 648 430 596 l 259 68 q 255 59 255 43 q 255 28 264 19 q 274 9 288 9 q 322 9 341 67 z"},"F":{"x_min":0,"x_max":771,"ha":771,"o":"m 866 655 l 793 431 l 769 431 q 772 455 772 472 q 772 539 711 585 q 651 632 562 632 l 531 632 l 446 362 q 492 363 523 376 q 554 388 593 423 q 631 457 654 508 l 679 508 l 566 158 l 546 158 q 554 187 554 210 q 554 330 437 334 l 336 23 l 437 23 l 429 0 l -54 0 l -47 23 l 34 23 l 232 632 l 151 632 l 159 655 z"},"`":{"x_min":0,"x_max":333,"ha":333,"o":"m 395 471 l 373 471 l 128 612 l 128 634 l 273 634 z"},"k":{"x_min":0,"x_max":625,"ha":625,"o":"m 592 127 q 558 43 521 20 q 483 -3 432 -3 q 380 -3 351 18 q 322 39 322 76 q 322 97 330 123 l 347 177 q 350 186 350 194 q 350 223 307 223 l 234 0 l -2 0 l 207 635 l 143 635 l 149 655 l 156 655 q 208 655 306 659 q 404 664 453 673 l 314 244 q 350 245 393 330 q 413 370 426 386 q 439 403 461 414 q 483 426 507 426 q 539 426 561 407 q 582 388 582 360 q 582 332 564 313 q 547 295 519 295 q 492 295 473 313 q 454 332 454 358 q 454 372 461 386 q 445 379 435 366 q 426 352 403 305 q 394 285 371 262 l 375 261 l 407 269 q 422 272 436 272 q 486 272 521 249 q 555 225 555 192 q 555 179 549 160 l 530 98 q 524 80 524 73 q 524 66 531 66 q 545 66 574 134 z"},"u":{"x_min":0,"x_max":698,"ha":698,"o":"m 669 162 q 608 -3 460 -3 q 406 -3 373 21 q 341 46 341 86 q 341 100 346 123 l 344 125 q 225 -3 131 -3 q 83 -3 53 22 q 23 48 23 88 q 23 109 35 146 l 113 386 l 48 386 l 54 406 q 232 406 360 426 q 270 147 265 133 q 260 118 260 111 q 260 98 271 98 q 277 98 286 104 q 295 109 306 118 q 317 127 327 138 q 337 148 348 160 l 354 166 q 356 169 374 223 l 433 406 l 669 406 l 603 203 q 572 107 571 101 q 569 95 569 90 q 569 75 580 75 q 594 75 614 102 q 634 129 647 169 z"},"]":{"x_min":0,"x_max":406,"ha":406,"o":"m 481 668 l 192 -211 l -109 -211 l -103 -191 l -23 -191 l 249 647 l 169 647 l 176 668 z"},"U":{"x_min":0,"x_max":760,"ha":760,"o":"m 913 655 l 905 632 q 875 632 859 627 q 844 622 826 606 q 807 590 793 567 q 778 544 758 483 l 661 183 q 637 109 613 79 q 588 49 546 26 q 505 3 457 -6 q 409 -15 352 -15 q 71 -15 71 137 q 71 168 86 214 l 222 632 l 141 632 l 148 655 l 612 655 l 604 632 l 518 632 l 361 149 q 346 104 346 88 q 346 64 370 48 q 394 32 430 32 q 467 32 502 44 q 537 57 564 79 q 592 102 606 128 q 621 155 654 258 l 714 440 q 740 520 740 550 q 740 586 713 608 q 687 630 638 632 l 645 655 z"},"o":{"x_min":0,"x_max":615,"ha":615,"o":"m 341 422 q 454 422 525 372 q 596 323 596 246 q 596 141 501 69 q 406 -3 263 -3 q 153 -3 86 50 q 19 103 19 188 q 19 287 112 354 q 204 422 341 422 z m 250 18 q 268 18 280 28 q 291 39 299 57 q 308 75 339 175 q 371 274 384 312 q 397 351 397 367 q 397 380 386 390 q 376 400 361 400 q 340 400 328 385 q 315 370 307 343 l 224 90 q 216 67 216 51 q 216 37 226 27 q 235 18 250 18 z"},"N":{"x_min":0,"x_max":802,"ha":802,"o":"m 939 655 l 931 632 q 876 631 842 594 q 807 558 785 491 l 626 0 l 459 0 l 244 559 l 242 559 l 118 171 q 107 134 107 110 q 107 74 137 49 q 167 24 218 23 l 210 0 l -68 0 l -61 23 q -33 23 -17 29 q 0 35 21 52 q 43 70 58 95 q 73 121 89 170 l 227 595 l 210 632 l 154 632 l 162 655 l 511 655 l 671 225 l 673 225 q 754 477 760 498 q 767 520 767 540 q 767 629 654 632 l 661 655 z"},"+":{"x_min":0,"x_max":667,"ha":667,"o":"m 635 272 l 421 272 l 421 59 l 300 59 l 300 272 l 86 272 l 86 393 l 300 393 l 300 608 l 421 608 l 421 393 l 635 393 z"},"G":{"x_min":0,"x_max":802,"ha":802,"o":"m 834 662 l 752 411 l 732 411 q 738 445 738 466 q 738 535 682 590 q 626 645 555 645 q 534 645 516 637 q 499 629 489 612 q 479 595 461 538 l 315 90 q 306 60 306 43 q 306 28 318 18 q 330 8 348 8 q 375 8 391 31 q 406 54 418 91 l 481 287 l 430 287 l 436 306 l 814 306 l 808 287 l 765 287 l 668 -12 l 653 -12 l 615 51 q 495 -14 377 -14 q 246 -14 157 69 q 68 151 68 273 q 68 378 129 471 q 189 563 295 616 q 400 670 521 670 q 637 670 726 612 l 814 662 z"},"q":{"x_min":0,"x_max":668,"ha":668,"o":"m 669 423 l 470 -192 l 538 -192 l 531 -211 l 164 -211 l 170 -192 l 235 -192 l 305 26 q 245 -3 170 -3 q 104 -3 61 37 q 19 77 19 139 q 19 248 122 334 q 226 421 358 421 q 457 421 560 361 l 645 423 z m 315 57 l 382 260 q 408 341 410 350 q 412 359 412 369 q 412 384 402 393 q 393 402 376 402 q 355 402 344 386 q 332 370 308 296 l 257 143 q 231 62 231 55 q 231 46 238 40 q 244 33 253 33 q 282 33 315 57 z"},"d":{"x_min":0,"x_max":698,"ha":698,"o":"m 759 673 l 574 105 q 566 83 566 73 q 566 68 570 64 q 575 60 579 60 q 590 60 611 89 q 632 117 648 155 l 667 146 q 606 -3 477 -3 q 434 -3 400 18 q 365 39 352 74 q 271 -3 177 -3 q 108 -3 63 37 q 19 76 19 137 q 19 245 120 333 q 220 421 344 421 q 402 421 435 394 l 513 635 l 447 635 l 453 655 l 477 655 q 641 655 759 673 z m 429 375 q 407 397 384 397 q 367 397 355 384 q 343 371 335 347 l 260 115 q 253 95 253 78 q 253 54 273 54 q 298 54 347 96 q 348 122 363 169 z"},"1":{"x_min":0,"x_max":688,"ha":688,"o":"m 595 655 l 388 20 l 469 20 l 463 0 l 78 0 l 85 20 l 152 20 l 341 603 l 263 603 l 270 623 l 320 623 q 451 623 495 628 q 539 633 595 655 z"},"5":{"x_min":0,"x_max":688,"ha":688,"o":"m 693 665 q 666 579 607 532 q 548 486 466 486 q 371 486 266 502 l 239 421 q 293 442 350 442 q 455 442 529 388 q 603 333 603 258 q 603 195 559 125 q 514 55 433 21 q 352 -13 262 -13 q 158 -13 91 34 q 24 81 24 152 q 24 189 52 217 q 81 245 119 245 q 157 245 185 216 q 213 188 213 148 q 213 117 192 89 q 172 61 113 54 q 137 33 168 24 q 200 15 217 15 q 240 15 258 25 q 276 36 285 54 q 294 72 322 160 l 369 307 q 388 366 388 380 q 388 398 370 409 q 353 420 323 420 q 264 420 228 387 l 210 393 l 298 665 q 365 647 481 647 q 594 647 693 665 z"}}}
